<?xml version="1.0" encoding="UTF-8"?>
<svg xmlns="http://www.w3.org/2000/svg" xmlns:xlink="http://www.w3.org/1999/xlink" width="300px" height="299px" viewBox="0 0 299 299" version="1.1">
<g id="surface1">
<path style=" stroke:none;fill-rule:evenodd;fill:rgb(10.196079%,73.725492%,99.607843%);fill-opacity:1;" d="M 149.5 149.5 C 149.5 128.859375 166.234375 112.125 186.875 112.125 C 207.515625 112.125 224.25 128.859375 224.25 149.5 C 224.25 170.140625 207.515625 186.875 186.875 186.875 C 166.234375 186.875 149.5 170.140625 149.5 149.5 Z M 149.5 149.5 "/>
<path style=" stroke:none;fill-rule:evenodd;fill:rgb(3.921569%,81.176472%,51.372552%);fill-opacity:1;" d="M 74.75 224.25 C 74.75 203.609375 91.484375 186.875 112.125 186.875 L 149.5 186.875 L 149.5 224.25 C 149.5 244.890625 132.765625 261.625 112.125 261.625 C 91.484375 261.625 74.75 244.890625 74.75 224.25 Z M 74.75 224.25 "/>
<path style=" stroke:none;fill-rule:evenodd;fill:rgb(100%,44.705883%,38.431373%);fill-opacity:1;" d="M 149.5 37.375 L 149.5 112.125 L 186.875 112.125 C 207.515625 112.125 224.25 95.390625 224.25 74.75 C 224.25 54.109375 207.515625 37.375 186.875 37.375 Z M 149.5 37.375 "/>
<path style=" stroke:none;fill-rule:evenodd;fill:rgb(94.901961%,30.588236%,11.764706%);fill-opacity:1;" d="M 74.75 74.75 C 74.75 95.390625 91.484375 112.125 112.125 112.125 L 149.5 112.125 L 149.5 37.375 L 112.125 37.375 C 91.484375 37.375 74.75 54.109375 74.75 74.75 Z M 74.75 74.75 "/>
<path style=" stroke:none;fill-rule:evenodd;fill:rgb(63.529414%,34.901962%,100%);fill-opacity:1;" d="M 74.75 149.5 C 74.75 170.140625 91.484375 186.875 112.125 186.875 L 149.5 186.875 L 149.5 112.125 L 112.125 112.125 C 91.484375 112.125 74.75 128.859375 74.75 149.5 Z M 74.75 149.5 "/>
</g>
</svg>
