<?xml version="1.0" encoding="UTF-8"?>
<svg xmlns="http://www.w3.org/2000/svg" xmlns:xlink="http://www.w3.org/1999/xlink" width="300px" height="300px" viewBox="0 0 300 300" version="1.1">
<defs>
<filter id="alpha" filterUnits="objectBoundingBox" x="0%" y="0%" width="100%" height="100%">
  <feColorMatrix type="matrix" in="SourceGraphic" values="0 0 0 0 1 0 0 0 0 1 0 0 0 0 1 0 0 0 1 0"/>
</filter>
<mask id="mask0">
  <g filter="url(#alpha)">
<rect x="0" y="0" width="300" height="300" style="fill:rgb(0%,0%,0%);fill-opacity:0.996078;stroke:none;"/>
  </g>
</mask>
<clipPath id="clip1">
  <rect x="0" y="0" width="300" height="300"/>
</clipPath>
<g id="surface5" clip-path="url(#clip1)">
<path style=" stroke:none;fill-rule:evenodd;fill:rgb(46.27451%,23.921569%,8.235294%);fill-opacity:1;" d="M 42.1875 32.8125 C 71.542969 54.992188 101.125 76.867188 130.9375 98.4375 C 131.273438 99.449219 131.480469 100.488281 131.5625 101.5625 C 121.140625 109.90625 110.933594 118.550781 100.9375 127.5 C 99.746094 128.386719 98.496094 129.117188 97.1875 129.6875 C 80.433594 134.164062 63.765625 138.957031 47.1875 144.0625 C 43.667969 140.433594 40.230469 136.683594 36.875 132.8125 C 36.96875 130.613281 38.113281 129.050781 40.3125 128.125 C 38.007812 125.820312 35.714844 123.527344 33.4375 121.25 C 34.90625 119.574219 36.574219 118.113281 38.4375 116.875 C 36.039062 114.996094 33.746094 113.015625 31.5625 110.9375 C 32.914062 109.691406 34.375 108.546875 35.9375 107.5 C 36.285156 107.046875 36.496094 106.527344 36.5625 105.9375 C 33.941406 93.773438 31.441406 81.585938 29.0625 69.375 C 32.535156 57.078125 36.390625 44.890625 40.625 32.8125 C 41.234375 32.015625 41.757812 32.015625 42.1875 32.8125 Z M 42.1875 32.8125 "/>
</g>
<mask id="mask1">
  <g filter="url(#alpha)">
<rect x="0" y="0" width="300" height="300" style="fill:rgb(0%,0%,0%);fill-opacity:0.988235;stroke:none;"/>
  </g>
</mask>
<clipPath id="clip2">
  <rect x="0" y="0" width="300" height="300"/>
</clipPath>
<g id="surface8" clip-path="url(#clip2)">
<path style=" stroke:none;fill-rule:evenodd;fill:rgb(88.235295%,45.882353%,10.196079%);fill-opacity:1;" d="M 257.1875 32.8125 C 227.832031 54.992188 198.25 76.867188 168.4375 98.4375 C 172.757812 86.152344 177.339844 73.964844 182.1875 61.875 C 181.839844 61.636719 181.632812 61.324219 181.5625 60.9375 C 206.585938 51.207031 231.796875 41.832031 257.1875 32.8125 Z M 257.1875 32.8125 "/>
</g>
<mask id="mask2">
  <g filter="url(#alpha)">
<rect x="0" y="0" width="300" height="300" style="fill:rgb(0%,0%,0%);fill-opacity:0.996078;stroke:none;"/>
  </g>
</mask>
<clipPath id="clip3">
  <rect x="0" y="0" width="300" height="300"/>
</clipPath>
<g id="surface11" clip-path="url(#clip3)">
<path style=" stroke:none;fill-rule:evenodd;fill:rgb(46.27451%,23.921569%,8.627451%);fill-opacity:1;" d="M 252.1875 144.0625 C 235.585938 139.078125 218.921875 134.285156 202.1875 129.6875 C 201.089844 129.328125 200.046875 128.808594 199.0625 128.125 C 189.664062 119.765625 180.078125 111.640625 170.3125 103.75 C 169.085938 102.84375 168.25 101.699219 167.8125 100.3125 C 167.847656 99.621094 168.054688 98.996094 168.4375 98.4375 C 198.25 76.867188 227.832031 54.992188 257.1875 32.8125 C 257.855469 32.066406 258.375 32.277344 258.75 33.4375 C 262.859375 45.347656 266.710938 57.324219 270.3125 69.375 C 267.667969 81.972656 265.273438 94.578125 263.125 107.1875 C 264.886719 108.328125 266.449219 109.679688 267.8125 111.25 C 265.40625 112.976562 263.113281 114.851562 260.9375 116.875 C 262.800781 118.113281 264.46875 119.574219 265.9375 121.25 C 263.660156 123.527344 261.367188 125.820312 259.0625 128.125 C 261.261719 129.050781 262.40625 130.613281 262.5 132.8125 C 259.144531 136.683594 255.707031 140.433594 252.1875 144.0625 Z M 252.1875 144.0625 "/>
</g>
<mask id="mask3">
  <g filter="url(#alpha)">
<rect x="0" y="0" width="300" height="300" style="fill:rgb(0%,0%,0%);fill-opacity:0.988235;stroke:none;"/>
  </g>
</mask>
<clipPath id="clip4">
  <rect x="0" y="0" width="300" height="300"/>
</clipPath>
<g id="surface14" clip-path="url(#clip4)">
<path style=" stroke:none;fill-rule:evenodd;fill:rgb(89.019608%,45.882353%,10.196079%);fill-opacity:1;" d="M 42.1875 32.8125 C 67.578125 41.832031 92.789062 51.207031 117.8125 60.9375 C 121.933594 73.515625 126.308594 86.015625 130.9375 98.4375 C 101.125 76.867188 71.542969 54.992188 42.1875 32.8125 Z M 42.1875 32.8125 "/>
</g>
<mask id="mask4">
  <g filter="url(#alpha)">
<rect x="0" y="0" width="300" height="300" style="fill:rgb(0%,0%,0%);fill-opacity:0.996078;stroke:none;"/>
  </g>
</mask>
<clipPath id="clip5">
  <rect x="0" y="0" width="300" height="300"/>
</clipPath>
<g id="surface17" clip-path="url(#clip5)">
<path style=" stroke:none;fill-rule:evenodd;fill:rgb(96.078432%,51.764709%,10.588235%);fill-opacity:1;" d="M 117.8125 60.9375 C 139.0625 60.9375 160.3125 60.9375 181.5625 60.9375 C 181.632812 61.324219 181.839844 61.636719 182.1875 61.875 C 177.339844 73.964844 172.757812 86.152344 168.4375 98.4375 C 168.054688 98.996094 167.847656 99.621094 167.8125 100.3125 C 166.589844 118.121094 165.550781 136.039062 164.6875 154.0625 C 164.171875 157.90625 163.859375 161.867188 163.75 165.9375 C 163.332031 179.269531 163.332031 192.605469 163.75 205.9375 C 165.109375 198.625 166.566406 191.335938 168.125 184.0625 C 168.203125 182.851562 168.722656 182.019531 169.6875 181.5625 C 170.105469 181.5625 170.3125 181.355469 170.3125 180.9375 C 178.230469 178.644531 186.144531 176.355469 194.0625 174.0625 C 194.269531 174.0625 194.480469 174.0625 194.6875 174.0625 C 195.511719 175.785156 195.929688 177.765625 195.9375 180 C 195.566406 184.273438 195.464844 188.542969 195.625 192.8125 C 202.402344 179.671875 209.175781 166.546875 215.9375 153.4375 C 215.9375 153.019531 215.9375 152.605469 215.9375 152.1875 C 211.78125 145.136719 207.304688 138.261719 202.5 131.5625 C 202.199219 130.96875 202.09375 130.34375 202.1875 129.6875 C 218.921875 134.285156 235.585938 139.078125 252.1875 144.0625 C 257.859375 161.28125 263.273438 178.574219 268.4375 195.9375 C 253.644531 195.9375 238.855469 195.9375 224.0625 195.9375 C 214.160156 195.730469 204.371094 195.941406 194.6875 196.5625 C 185.6875 203.144531 176.9375 210.019531 168.4375 217.1875 C 168.230469 217.1875 168.019531 217.1875 167.8125 217.1875 C 166.507812 216.007812 165.046875 214.964844 163.4375 214.0625 C 154.148438 214.890625 144.878906 214.890625 135.625 214.0625 C 134.171875 215.042969 132.816406 216.082031 131.5625 217.1875 C 131.355469 217.1875 131.144531 217.1875 130.9375 217.1875 C 122.4375 210.019531 113.6875 203.144531 104.6875 196.5625 C 95.003906 195.941406 85.214844 195.730469 75.3125 195.9375 C 60.519531 195.9375 45.730469 195.9375 30.9375 195.9375 C 36.105469 178.5625 41.519531 161.273438 47.1875 144.0625 C 63.765625 138.957031 80.433594 134.164062 97.1875 129.6875 C 92.851562 137.351562 88.269531 144.851562 83.4375 152.1875 C 83.4375 152.394531 83.4375 152.605469 83.4375 152.8125 C 90.03125 166.210938 96.804688 179.542969 103.75 192.8125 C 103.667969 186.363281 103.5625 179.90625 103.4375 173.4375 C 104.269531 173.644531 105.105469 173.855469 105.9375 174.0625 C 113.550781 176.457031 121.257812 178.75 129.0625 180.9375 C 129.0625 181.355469 129.269531 181.5625 129.6875 181.5625 C 130.46875 181.609375 130.988281 182.027344 131.25 182.8125 C 132.574219 190.761719 134.03125 198.675781 135.625 206.5625 C 136.042969 191.980469 136.042969 177.394531 135.625 162.8125 C 135.515625 159.78125 135.203125 156.863281 134.6875 154.0625 C 133.992188 136.542969 132.949219 119.042969 131.5625 101.5625 C 131.480469 100.488281 131.273438 99.449219 130.9375 98.4375 C 126.308594 86.015625 121.933594 73.515625 117.8125 60.9375 Z M 117.8125 60.9375 "/>
</g>
<mask id="mask5">
  <g filter="url(#alpha)">
<rect x="0" y="0" width="300" height="300" style="fill:rgb(0%,0%,0%);fill-opacity:0.992157;stroke:none;"/>
  </g>
</mask>
<clipPath id="clip6">
  <rect x="0" y="0" width="300" height="300"/>
</clipPath>
<g id="surface20" clip-path="url(#clip6)">
<path style=" stroke:none;fill-rule:evenodd;fill:rgb(89.411765%,45.882353%,10.196079%);fill-opacity:1;" d="M 30.9375 195.9375 C 45.730469 195.9375 60.519531 195.9375 75.3125 195.9375 C 83.445312 208.042969 91.570312 220.128906 99.6875 232.1875 C 99.6875 232.605469 99.6875 233.019531 99.6875 233.4375 C 81.980469 238.804688 64.0625 243.59375 45.9375 247.8125 C 41.035156 230.492188 36.035156 213.203125 30.9375 195.9375 Z M 30.9375 195.9375 "/>
</g>
<mask id="mask6">
  <g filter="url(#alpha)">
<rect x="0" y="0" width="300" height="300" style="fill:rgb(0%,0%,0%);fill-opacity:0.992157;stroke:none;"/>
  </g>
</mask>
<clipPath id="clip7">
  <rect x="0" y="0" width="300" height="300"/>
</clipPath>
<g id="surface23" clip-path="url(#clip7)">
<path style=" stroke:none;fill-rule:evenodd;fill:rgb(89.411765%,45.882353%,10.196079%);fill-opacity:1;" d="M 224.0625 195.9375 C 238.855469 195.9375 253.644531 195.9375 268.4375 195.9375 C 263.4375 213.230469 258.4375 230.519531 253.4375 247.8125 C 235.386719 243.53125 217.46875 238.738281 199.6875 233.4375 C 199.6875 233.019531 199.6875 232.605469 199.6875 232.1875 C 207.804688 220.128906 215.929688 208.042969 224.0625 195.9375 Z M 224.0625 195.9375 "/>
</g>
<mask id="mask7">
  <g filter="url(#alpha)">
<rect x="0" y="0" width="300" height="300" style="fill:rgb(0%,0%,0%);fill-opacity:0.976471;stroke:none;"/>
  </g>
</mask>
<clipPath id="clip8">
  <rect x="0" y="0" width="300" height="300"/>
</clipPath>
<g id="surface26" clip-path="url(#clip8)">
<path style=" stroke:none;fill-rule:evenodd;fill:rgb(75.294119%,67.450982%,61.56863%);fill-opacity:1;" d="M 99.6875 232.1875 C 100.105469 232.1875 100.519531 232.1875 100.9375 232.1875 C 109.910156 236.785156 119.078125 241.160156 128.4375 245.3125 C 128.855469 241.675781 129.269531 238.132812 129.6875 234.6875 C 129.507812 235.804688 129.71875 236.847656 130.3125 237.8125 C 130.816406 237.621094 131.234375 237.308594 131.5625 236.875 C 143.644531 236.457031 155.730469 236.457031 167.8125 236.875 C 168.417969 237.800781 169.253906 238.320312 170.3125 238.4375 C 170.3125 240.730469 170.3125 243.019531 170.3125 245.3125 C 179.949219 241.429688 189.324219 237.054688 198.4375 232.1875 C 198.855469 232.1875 199.269531 232.1875 199.6875 232.1875 C 199.6875 232.605469 199.6875 233.019531 199.6875 233.4375 C 189.71875 241.628906 179.304688 249.234375 168.4375 256.25 C 155.9375 256.667969 143.4375 256.667969 130.9375 256.25 C 120.070312 249.234375 109.65625 241.628906 99.6875 233.4375 C 99.6875 233.019531 99.6875 232.605469 99.6875 232.1875 Z M 99.6875 232.1875 "/>
</g>
</defs>
<g id="surface1">
<use xlink:href="#surface5" mask="url(#mask0)"/>
<use xlink:href="#surface8" mask="url(#mask1)"/>
<use xlink:href="#surface11" mask="url(#mask2)"/>
<use xlink:href="#surface14" mask="url(#mask3)"/>
<use xlink:href="#surface17" mask="url(#mask4)"/>
<path style=" stroke:none;fill-rule:evenodd;fill:rgb(89.019608%,45.882353%,10.196079%);fill-opacity:1;" d="M 131.5625 101.5625 C 132.949219 119.042969 133.992188 136.542969 134.6875 154.0625 C 117.605469 153.460938 100.523438 152.835938 83.4375 152.1875 C 88.269531 144.851562 92.851562 137.351562 97.1875 129.6875 C 98.496094 129.117188 99.746094 128.386719 100.9375 127.5 C 110.933594 118.550781 121.140625 109.90625 131.5625 101.5625 Z M 131.5625 101.5625 "/>
<path style=" stroke:none;fill-rule:evenodd;fill:rgb(89.019608%,45.882353%,10.196079%);fill-opacity:1;" d="M 167.8125 100.3125 C 168.25 101.699219 169.085938 102.84375 170.3125 103.75 C 180.078125 111.640625 189.664062 119.765625 199.0625 128.125 C 200.046875 128.808594 201.089844 129.328125 202.1875 129.6875 C 202.09375 130.34375 202.199219 130.96875 202.5 131.5625 C 207.304688 138.261719 211.78125 145.136719 215.9375 152.1875 C 198.855469 152.84375 181.773438 153.46875 164.6875 154.0625 C 165.550781 136.039062 166.589844 118.121094 167.8125 100.3125 Z M 167.8125 100.3125 "/>
<path style=" stroke:none;fill-rule:evenodd;fill:rgb(80.000001%,38.039216%,8.627451%);fill-opacity:1;" d="M 83.4375 152.8125 C 83.4375 152.605469 83.4375 152.394531 83.4375 152.1875 C 100.523438 152.835938 117.605469 153.460938 134.6875 154.0625 C 133.421875 163.324219 131.753906 172.488281 129.6875 181.5625 C 129.269531 181.5625 129.0625 181.355469 129.0625 180.9375 C 127.324219 175.792969 124.929688 171 121.875 166.5625 C 116.390625 168.835938 111.078125 171.335938 105.9375 174.0625 C 105.105469 173.855469 104.269531 173.644531 103.4375 173.4375 C 96.734375 166.53125 90.070312 159.65625 83.4375 152.8125 Z M 83.4375 152.8125 "/>
<path style=" stroke:none;fill-rule:evenodd;fill:rgb(80.000001%,38.039216%,8.627451%);fill-opacity:1;" d="M 215.9375 152.1875 C 215.9375 152.605469 215.9375 153.019531 215.9375 153.4375 C 208.882812 160.28125 201.800781 167.15625 194.6875 174.0625 C 194.480469 174.0625 194.269531 174.0625 194.0625 174.0625 C 188.683594 171.394531 183.164062 168.894531 177.5 166.5625 C 174.445312 171 172.050781 175.792969 170.3125 180.9375 C 170.3125 181.355469 170.105469 181.5625 169.6875 181.5625 C 167.503906 172.527344 165.835938 163.359375 164.6875 154.0625 C 181.773438 153.46875 198.855469 152.84375 215.9375 152.1875 Z M 215.9375 152.1875 "/>
<path style=" stroke:none;fill-rule:evenodd;fill:rgb(89.411765%,45.882353%,11.764706%);fill-opacity:1;" d="M 83.4375 152.8125 C 90.070312 159.65625 96.734375 166.53125 103.4375 173.4375 C 103.5625 179.90625 103.667969 186.363281 103.75 192.8125 C 96.804688 179.542969 90.03125 166.210938 83.4375 152.8125 Z M 83.4375 152.8125 "/>
<path style=" stroke:none;fill-rule:evenodd;fill:rgb(89.411765%,45.882353%,11.764706%);fill-opacity:1;" d="M 215.9375 153.4375 C 209.175781 166.546875 202.402344 179.671875 195.625 192.8125 C 195.464844 188.542969 195.566406 184.273438 195.9375 180 C 195.929688 177.765625 195.511719 175.785156 194.6875 174.0625 C 201.800781 167.15625 208.882812 160.28125 215.9375 153.4375 Z M 215.9375 153.4375 "/>
<path style=" stroke:none;fill-rule:evenodd;fill:rgb(89.411765%,45.882353%,11.764706%);fill-opacity:1;" d="M 134.6875 154.0625 C 135.203125 156.863281 135.515625 159.78125 135.625 162.8125 C 136.042969 177.394531 136.042969 191.980469 135.625 206.5625 C 134.03125 198.675781 132.574219 190.761719 131.25 182.8125 C 130.988281 182.027344 130.46875 181.609375 129.6875 181.5625 C 131.753906 172.488281 133.421875 163.324219 134.6875 154.0625 Z M 134.6875 154.0625 "/>
<path style=" stroke:none;fill-rule:evenodd;fill:rgb(89.411765%,45.882353%,11.764706%);fill-opacity:1;" d="M 164.6875 154.0625 C 165.835938 163.359375 167.503906 172.527344 169.6875 181.5625 C 168.722656 182.019531 168.203125 182.851562 168.125 184.0625 C 166.566406 191.335938 165.109375 198.625 163.75 205.9375 C 163.332031 192.605469 163.332031 179.269531 163.75 165.9375 C 163.859375 161.867188 164.171875 157.90625 164.6875 154.0625 Z M 164.6875 154.0625 "/>
<path style=" stroke:none;fill-rule:evenodd;fill:rgb(16.470589%,20.784314%,27.058825%);fill-opacity:1;" d="M 129.0625 180.9375 C 121.257812 178.75 113.550781 176.457031 105.9375 174.0625 C 111.078125 171.335938 116.390625 168.835938 121.875 166.5625 C 124.929688 171 127.324219 175.792969 129.0625 180.9375 Z M 129.0625 180.9375 "/>
<path style=" stroke:none;fill-rule:evenodd;fill:rgb(15.294118%,20.784314%,27.450982%);fill-opacity:1;" d="M 194.0625 174.0625 C 186.144531 176.355469 178.230469 178.644531 170.3125 180.9375 C 172.050781 175.792969 174.445312 171 177.5 166.5625 C 183.164062 168.894531 188.683594 171.394531 194.0625 174.0625 Z M 194.0625 174.0625 "/>
<use xlink:href="#surface20" mask="url(#mask5)"/>
<path style=" stroke:none;fill-rule:evenodd;fill:rgb(80.392158%,38.039216%,8.627451%);fill-opacity:1;" d="M 75.3125 195.9375 C 85.214844 195.730469 95.003906 195.941406 104.6875 196.5625 C 103.4375 208.230469 102.1875 219.894531 100.9375 231.5625 C 100.9375 231.769531 100.9375 231.980469 100.9375 232.1875 C 100.519531 232.1875 100.105469 232.1875 99.6875 232.1875 C 91.570312 220.128906 83.445312 208.042969 75.3125 195.9375 Z M 75.3125 195.9375 "/>
<path style=" stroke:none;fill-rule:evenodd;fill:rgb(80.392158%,38.039216%,8.627451%);fill-opacity:1;" d="M 224.0625 195.9375 C 215.929688 208.042969 207.804688 220.128906 199.6875 232.1875 C 199.269531 232.1875 198.855469 232.1875 198.4375 232.1875 C 198.4375 231.980469 198.4375 231.769531 198.4375 231.5625 C 197.074219 219.910156 195.824219 208.242188 194.6875 196.5625 C 204.371094 195.941406 214.160156 195.730469 224.0625 195.9375 Z M 224.0625 195.9375 "/>
<use xlink:href="#surface23" mask="url(#mask6)"/>
<path style=" stroke:none;fill-rule:evenodd;fill:rgb(89.019608%,46.27451%,10.588235%);fill-opacity:1;" d="M 104.6875 196.5625 C 113.6875 203.144531 122.4375 210.019531 130.9375 217.1875 C 120.941406 221.976562 110.941406 226.769531 100.9375 231.5625 C 102.1875 219.894531 103.4375 208.230469 104.6875 196.5625 Z M 104.6875 196.5625 "/>
<path style=" stroke:none;fill-rule:evenodd;fill:rgb(89.019608%,46.27451%,10.588235%);fill-opacity:1;" d="M 194.6875 196.5625 C 195.824219 208.242188 197.074219 219.910156 198.4375 231.5625 C 188.433594 226.769531 178.433594 221.976562 168.4375 217.1875 C 176.9375 210.019531 185.6875 203.144531 194.6875 196.5625 Z M 194.6875 196.5625 "/>
<path style=" stroke:none;fill-rule:evenodd;fill:rgb(9.411765%,9.411765%,9.411765%);fill-opacity:1;" d="M 167.8125 217.1875 C 168.511719 224.289062 169.34375 231.371094 170.3125 238.4375 C 169.253906 238.320312 168.417969 237.800781 167.8125 236.875 C 155.730469 236.457031 143.644531 236.457031 131.5625 236.875 C 131.234375 237.308594 130.816406 237.621094 130.3125 237.8125 C 129.71875 236.847656 129.507812 235.804688 129.6875 234.6875 C 130.128906 228.832031 130.753906 223 131.5625 217.1875 C 132.816406 216.082031 134.171875 215.042969 135.625 214.0625 C 144.878906 214.890625 154.148438 214.890625 163.4375 214.0625 C 165.046875 214.964844 166.507812 216.007812 167.8125 217.1875 Z M 167.8125 217.1875 "/>
<path style=" stroke:none;fill-rule:evenodd;fill:rgb(83.92157%,74.901962%,69.411767%);fill-opacity:1;" d="M 167.8125 217.1875 C 168.019531 217.1875 168.230469 217.1875 168.4375 217.1875 C 178.433594 221.976562 188.433594 226.769531 198.4375 231.5625 C 198.4375 231.769531 198.4375 231.980469 198.4375 232.1875 C 189.324219 237.054688 179.949219 241.429688 170.3125 245.3125 C 170.3125 243.019531 170.3125 240.730469 170.3125 238.4375 C 169.34375 231.371094 168.511719 224.289062 167.8125 217.1875 Z M 167.8125 217.1875 "/>
<path style=" stroke:none;fill-rule:evenodd;fill:rgb(83.92157%,74.901962%,69.411767%);fill-opacity:1;" d="M 130.9375 217.1875 C 131.144531 217.1875 131.355469 217.1875 131.5625 217.1875 C 130.753906 223 130.128906 228.832031 129.6875 234.6875 C 129.269531 238.132812 128.855469 241.675781 128.4375 245.3125 C 119.078125 241.160156 109.910156 236.785156 100.9375 232.1875 C 100.9375 231.980469 100.9375 231.769531 100.9375 231.5625 C 110.941406 226.769531 120.941406 221.976562 130.9375 217.1875 Z M 130.9375 217.1875 "/>
<use xlink:href="#surface26" mask="url(#mask7)"/>
</g>
</svg>
