<?xml version="1.0" encoding="UTF-8"?>
<!DOCTYPE svg PUBLIC "-//W3C//DTD SVG 1.1//EN" "http://www.w3.org/Graphics/SVG/1.1/DTD/svg11.dtd">
<svg xmlns="http://www.w3.org/2000/svg" version="1.1" width="300px" height="300px" style="shape-rendering:geometricPrecision; text-rendering:geometricPrecision; image-rendering:optimizeQuality; fill-rule:evenodd; clip-rule:evenodd" xmlns:xlink="http://www.w3.org/1999/xlink">
<g><path style="opacity:0.972" fill="#8991b1" d="M 149.5,11.5 C 149.5,45.5 149.5,79.5 149.5,113.5C 121.279,126.445 92.9452,139.111 64.5,151.5C 92.3454,104.465 120.679,57.798 149.5,11.5 Z"/></g>
<g><path style="opacity:0.971" fill="#61678e" d="M 149.5,11.5 C 178.223,58.2325 206.556,105.233 234.5,152.5C 206.279,139.555 177.945,126.889 149.5,114.5C 149.5,114.167 149.5,113.833 149.5,113.5C 149.5,79.5 149.5,45.5 149.5,11.5 Z"/></g>
<g><path style="opacity:0.98" fill="#62688f" d="M 149.5,113.5 C 149.5,113.833 149.5,114.167 149.5,114.5C 149.5,143.833 149.5,173.167 149.5,202.5C 120.598,186.225 92.2647,169.225 64.5,151.5C 92.9452,139.111 121.279,126.445 149.5,113.5 Z"/></g>
<g><path style="opacity:0.982" fill="#454a75" d="M 149.5,114.5 C 177.945,126.889 206.279,139.555 234.5,152.5C 206.339,169.415 178.006,186.082 149.5,202.5C 149.5,173.167 149.5,143.833 149.5,114.5 Z"/></g>
<g><path style="opacity:0.94" fill="#8991b1" d="M 149.5,216.5 C 149.5,240.167 149.5,263.833 149.5,287.5C 120.836,248.153 92.5024,208.487 64.5,168.5C 66.523,167.959 68.523,168.459 70.5,170C 96.7204,185.727 123.054,201.227 149.5,216.5 Z"/></g>
<g><path style="opacity:0.94" fill="#62688f" d="M 149.5,287.5 C 149.5,263.833 149.5,240.167 149.5,216.5C 177.472,200.178 205.472,183.845 233.5,167.5C 233.833,167.833 234.167,168.167 234.5,168.5C 206.498,208.487 178.164,248.153 149.5,287.5 Z"/></g>
</svg>
