<?xml version="1.0" encoding="UTF-8"?>
<svg xmlns="http://www.w3.org/2000/svg" xmlns:xlink="http://www.w3.org/1999/xlink" width="300px" height="299px" viewBox="0 0 299 299" version="1.1">
<g id="surface1">
<path style=" stroke:none;fill-rule:nonzero;fill:rgb(26.666668%,65.882355%,70.19608%);fill-opacity:1;" d="M 84.09375 128.007812 C 92.816406 93.125 114.617188 75.683594 149.5 75.683594 C 201.824219 75.683594 208.367188 114.929688 234.527344 121.46875 C 251.96875 125.828125 267.230469 119.289062 280.3125 101.847656 C 271.589844 136.730469 249.789062 154.171875 214.90625 154.171875 C 162.582031 154.171875 156.039062 114.929688 129.878906 108.386719 C 112.4375 104.027344 97.175781 110.566406 84.09375 128.007812 Z M 18.6875 206.496094 C 27.410156 171.613281 49.210938 154.171875 84.09375 154.171875 C 136.417969 154.171875 142.960938 193.414062 169.121094 199.957031 C 186.5625 204.316406 201.824219 197.777344 214.90625 180.335938 C 206.183594 215.21875 184.382812 232.660156 149.5 232.660156 C 97.175781 232.660156 90.632812 193.414062 64.472656 186.875 C 47.03125 182.515625 31.769531 189.054688 18.6875 206.496094 Z M 18.6875 206.496094 "/>
</g>
</svg>
